Coordinates
version=1
nRows=10
nColumns=46
inDegrees=yes

Units are S.I. units (second, meters, Newtons, ...)
Angles are in degrees.

endheader
time	pelvis_tilt	pelvis_list	pelvis_rotation	pelvis_tx	pelvis_ty	pelvis_tz	bb_angle	bb_tx	bb_ty	bb_tz	hip_flexion_r	hip_adduction_r	hip_rotation_r	knee_angle_r	knee_angle_r_beta	ankle_angle_r	subtalar_angle_r	mtp_angle_r	crank_angle_r	hip_flexion_l	hip_adduction_l	hip_rotation_l	knee_angle_l	knee_angle_l_beta	ankle_angle_l	subtalar_angle_l	mtp_angle_l	crank_angle_l	lumbar_extension	lumbar_bending	lumbar_rotation	arm_flex_r	arm_add_r	arm_rot_r	elbow_flex_r	pro_sup_r	wrist_flex_r	wrist_dev_r	arm_flex_l	arm_add_l	arm_rot_l	elbow_flex_l	pro_sup_l	wrist_flex_l	wrist_dev_l
      7.50500000	     -7.79327464	     -3.79485827	     -1.97933752	      0.18351473	      1.06961862	     -0.32157452	      0.00000000	      0.50000000	      0.00000000	      0.25000000	     67.01090005	     -1.72732938	     -0.00877575	     72.34154820	      1.26259820	      6.85737817	    -10.40929268	      0.00000000	      0.00000000	     51.30891432	     -9.79794231	      4.59672537	     84.46236504	      1.47414636	    -13.30025305	     -5.75907949	      0.00000000	      0.00000000	    -70.32748425	      0.98186683	      3.79170738	     89.62098583	     -7.15186298	     22.67042948	     49.19763684	     25.69880174	      0.00000000	      0.00000000	     87.34522887	     -9.82541147	     24.39832190	     47.62000822	     37.84610118	      0.00000000	      0.00000000
      7.51000000	     -7.54166000	     -3.22665253	     -1.97620127	      0.18378651	      1.06801039	     -0.32114565	      0.00000000	      0.50000000	      0.00000000	      0.25000000	     65.84381778	     -2.12350083	      0.21633706	     70.55761412	      1.23146268	      5.39051282	     -9.82778368	      0.00000000	      0.00000000	     52.30539748	     -9.21464876	      4.61297219	     87.02393565	      1.51885421	    -12.82745761	     -6.01794639	      0.00000000	      0.00000000	    -70.37139693	      0.63664548	      3.28469393	     89.61051829	     -7.26274074	     22.66965259	     49.12709876	     25.67991490	      0.00000000	      0.00000000	     87.37423163	     -9.85198854	     24.50421921	     47.63426401	     37.86402233	      0.00000000	      0.00000000
      7.51500000	     -7.43992181	     -3.09255032	     -2.02624499	      0.18402348	      1.06604198	     -0.32053002	      0.00000000	      0.50000000	      0.00000000	      0.25000000	     64.75649371	     -2.14020066	      0.14595959	     68.70021111	      1.19904488	      3.52122692	    -10.16600580	      0.00000000	      0.00000000	     53.66136389	     -9.10372880	      4.92410408	     89.75562173	      1.56653112	    -12.24852611	     -5.92573222	      0.00000000	      0.00000000	    -70.23948626	      0.51141509	      3.11684657	     89.60216636	     -7.23034628	     22.91797169	     48.90037734	     25.64311506	      0.00000000	      0.00000000	     87.30131267	    -10.13499774	     24.86315153	     47.65933301	     37.92154476	      0.00000000	      0.00000000
      7.52000000	     -7.18300533	     -2.53779191	     -1.92461691	      0.18442004	      1.06465305	     -0.31999249	      0.00000000	      0.50000000	      0.00000000	      0.25000000	     63.55500308	     -2.62681859	      0.30454308	     66.96930048	      1.16883479	      1.93619932	     -9.56859117	      0.00000000	      0.00000000	     54.66359361	     -8.51025877	      4.95240138	     92.18985912	      1.60901658	    -11.63544643	     -6.11906179	      0.00000000	      0.00000000	    -70.29424377	      0.24261697	      2.59293213	     89.58636524	     -7.40428660	     22.96074475	     48.80904160	     25.62850520	      0.00000000	      0.00000000	     87.33372003	    -10.17278668	     25.00226294	     47.68085897	     37.94426898	      0.00000000	      0.00000000
      7.52500000	     -6.93444594	     -2.47472520	     -1.86435293	      0.18494891	      1.06297561	     -0.31939313	      0.00000000	      0.50000000	      0.00000000	      0.25000000	     62.27611648	     -2.72658401	      0.02525415	     65.21918402	      1.13828950	      0.04831613	     -9.99913819	      0.00000000	      0.00000000	     55.89052267	     -8.41901106	      5.35563604	     94.82469535	      1.65500315	    -10.76950130	     -5.75295619	      0.00000000	      0.00000000	    -70.32070673	      0.20636804	      2.45846477	     89.57723040	     -7.47001468	     23.40040861	     48.49620973	     25.60452861	      0.00000000	      0.00000000	     87.23852005	    -10.48906389	     25.49862448	     47.78234287	     38.03212297	      0.00000000	      0.00000000
      7.53000000	     -6.72131367	     -1.96497977	     -1.72368881	      0.18546639	      1.06180651	     -0.31874416	      0.00000000	      0.50000000	      0.00000000	      0.25000000	     60.99147236	     -3.18413310	      0.14261255	     63.43464099	      1.10714335	     -1.63548345	     -9.48383617	      0.00000000	      0.00000000	     56.93583443	     -7.87524244	      5.36059598	     97.11277092	      1.69493760	    -10.05061509	     -5.93791794	      0.00000000	      0.00000000	    -70.35458320	     -0.00072786	      1.98426640	     89.55726064	     -7.66729601	     23.51073453	     48.38346596	     25.59602360	      0.00000000	      0.00000000	     87.25314711	    -10.55838629	     25.68776463	     47.82960656	     38.06619695	      0.00000000	      0.00000000
      7.53500000	     -6.48405308	     -1.55811292	     -1.53878892	      0.18599610	      1.06064882	     -0.31797938	      0.00000000	      0.50000000	      0.00000000	      0.25000000	     59.61817642	     -3.56057091	      0.29990244	     61.68611512	      1.07662581	     -3.24453973	     -9.04001999	      0.00000000	      0.00000000	     58.03571523	     -7.38430670	      5.52397864	     99.38023281	      1.73451227	     -9.33395229	     -6.07662508	      0.00000000	      0.00000000	    -70.43677427	     -0.22083764	      1.51243657	     89.53738105	     -7.84535985	     23.63581415	     48.26699760	     25.58906994	      0.00000000	      0.00000000	     87.22987291	    -10.62097326	     25.87020316	     47.86669802	     38.09708577	      0.00000000	      0.00000000
      7.54000000	     -6.22471435	     -1.20713702	     -1.32958812	      0.18654123	      1.05965521	     -0.31699324	      0.00000000	      0.50000000	      0.00000000	      0.25000000	     58.18348242	     -3.91304516	      0.38756572	     60.00926797	      1.04735931	     -4.71048375	     -8.66105761	      0.00000000	      0.00000000	     59.13727706	     -6.98319725	      5.67649914	    101.55941529	      1.77254618	     -8.63307065	     -6.15481403	      0.00000000	      0.00000000	    -70.54361170	     -0.40529499	      1.09324807	     89.51204810	     -8.01247172	     23.78230232	     48.13847963	     25.58231550	      0.00000000	      0.00000000	     87.22443138	    -10.66148489	     26.05889949	     47.90872984	     38.12859494	      0.00000000	      0.00000000
      7.54500000	     -5.93710364	     -1.33925740	     -1.11552568	      0.18716189	      1.05877828	     -0.31593066	      0.00000000	      0.50000000	      0.00000000	      0.25000000	     56.57189990	     -3.92867590	     -0.01874193	     58.18012900	      1.01543481	     -6.73555132	     -9.08864042	      0.00000000	      0.00000000	     60.32842712	     -7.01469007	      6.26328359	    103.76771424	      1.81108827	     -7.58673841	     -5.56958245	      0.00000000	      0.00000000	    -70.63170394	     -0.29374085	      1.17161031	     89.53367418	     -8.58486325	     26.06325027	     47.45924012	     25.75506895	      0.00000000	      0.00000000	     87.27802705	    -11.50404503	     28.37521046	     48.31917360	     38.50897797	      0.00000000	      0.00000000
      7.55000000	     -5.72374468	     -0.86165878	     -0.87016084	      0.18783596	      1.05803726	     -0.31496175	      0.00000000	      0.50000000	      0.00000000	      0.25000000	     55.15425338	     -4.43769799	      0.11515167	     56.58847570	      0.98765522	     -7.98765477	     -8.43201660	      0.00000000	      0.00000000	     61.45500176	     -6.52169192	      6.25305144	    105.70888978	      1.84496818	     -6.93043504	     -5.76566587	      0.00000000	      0.00000000	    -70.70830315	     -0.51416439	      0.68974482	     89.50650818	     -8.76500144	     26.05203270	     47.39145851	     25.75531215	      0.00000000	      0.00000000	     87.31550720	    -11.42059543	     28.45862321	     48.33305142	     38.52322175	      0.00000000	      0.00000000
